<?xml version="1.0" encoding="UTF-8"?>
<svg id="Layer_2" data-name="Layer 2" xmlns="http://www.w3.org/2000/svg" viewBox="0 0 364.11 118.5">
  <defs>
    <style>
      .cls-1 {
        letter-spacing: 0em;
      }

      .cls-2 {
        font-family: BricolageGrotesque-Bold, 'Bricolage Grotesque';
        font-size: 31.31px;
        font-weight: 700;
      }

      .cls-3 {
        letter-spacing: 0em;
      }

      .cls-4 {
        letter-spacing: -.02em;
      }

      .cls-5 {
        fill: #7658a5;
      }

      .cls-6 {
        letter-spacing: 0em;
      }

      .cls-7 {
        letter-spacing: 0em;
      }
    </style>
  </defs>
  <g id="Layer_8" data-name="Layer 8">
    <g>
      <g>
        <path class="cls-5" d="m70.51,83.23c0,.23,0,.46.02.69-.19,9.95-4.5,18.89-11.29,25.18-6.29,5.83-14.71,9.4-23.97,9.4C15.79,118.5,0,102.71,0,83.23c0-8.81,3.23-16.87,8.58-23.06,5.55,6.02,13.09,10.18,21.57,11.44-4.46,1.97-7.57,6.42-7.57,11.61,0,7.01,5.68,12.69,12.69,12.69s12.32-5.31,12.68-12.01c.01-.23.02-.45.02-.69s0-.46-.02-.69c-.26-4.83-3.21-8.94-7.38-10.85-1.61-.74-3.4-1.15-5.29-1.15-10.21,0-19.42-4.35-25.85-11.29C3.56,52.96,0,44.53,0,35.27,0,15.79,15.79,0,35.27,0c.11,0,.23,0,.35,0v.02c.25-.02.51-.03.77-.03,6.25,0,11.32,5.07,11.32,11.32s-5.06,11.32-11.32,11.32c-.41,0-.82-.02-1.22-.06-6.96.05-12.59,5.71-12.59,12.69s5.68,12.69,12.69,12.69c6.2,0,12.02,1.6,17.08,4.41,2.5,1.38,4.81,3.06,6.89,4.99.65.61,1.28,1.24,1.89,1.89.4.43.79.86,1.16,1.31,1.46,1.72,2.74,3.59,3.84,5.57,2.71,4.88,4.3,10.47,4.41,16.41-.01.23-.02.45-.02.69Z"/>
        <path class="cls-5" d="m109.06,59.25c5.84,6.29,9.41,14.72,9.41,23.98v35.27h-22.57v-35.27c0-6.7-5.18-12.17-11.74-12.65l-.34-.05h-.03c-.19,0-.39,0-.58,0s-.39,0-.58,0h-.03c-.36,0-.72-.02-1.07-.03-5.48-.81-9.69-5.53-9.69-11.24s4.25-10.49,9.78-11.26c.53-.03,1.06-.04,1.59-.04l.89-.03c6.59-.45,11.81-5.95,11.81-12.66s-5.68-12.69-12.69-12.69c-4.92,0-9.19,2.8-11.29,6.89-.8,1.55-1.29,3.28-1.39,5.12v.03c-.01.22-.02.43-.02.65s0,.44.02.65v.03c-.11,5.95-1.69,11.53-4.41,16.41-1.15,2.09-2.52,4.05-4.07,5.84-5.73-5.99-13.44-10.05-22.08-11.15,4.48-1.79,7.7-6.05,7.97-11.11.01-.23.02-.45.02-.69s0-.46-.02-.69c.19-9.95,4.5-18.9,11.29-25.18.42-.4.86-.78,1.3-1.15,6.13-5.14,14.03-8.25,22.66-8.25,19.47,0,35.27,15.79,35.27,35.27,0,9.26-3.57,17.69-9.41,23.98Z"/>
      </g>
      <text class="cls-2" transform="translate(135.31 28.72)"><tspan x="0" y="0">SMALL</tspan><tspan x="0" y="37.57">R</tspan><tspan class="cls-1" x="21.26" y="37.57">E</tspan><tspan x="40.67" y="37.57">S</tspan><tspan class="cls-6" x="61.08" y="37.57">E</tspan><tspan x="80.65" y="37.57">ARCHERS</tspan><tspan class="cls-4" x="0" y="75.14">A</tspan><tspan class="cls-7" x="21.07" y="75.14">C</tspan><tspan x="42.05" y="75.14">A</tspan><tspan class="cls-3" x="63.9" y="75.14">D</tspan><tspan x="85.75" y="75.14">EMY</tspan></text>
    </g>
  </g>
</svg>